<?xml version="1.0" encoding="UTF-8"?>
<svg width="34px" height="34px" viewBox="0 0 34 34" version="1.1" xmlns="http://www.w3.org/2000/svg" xmlns:xlink="http://www.w3.org/1999/xlink">
    <title>1A738010-C646-462D-A69C-6FEE88B3ED57@2x</title>
    <defs>
        <path d="M326.001712,1069 C318.821151,1069 313,1074.82115 313,1082.00171 C313,1089.17885 318.821151,1095 326.001712,1095 C333.178849,1095 339,1089.17885 339,1082.00171 C339,1074.82115 333.178849,1069 326.001712,1069 L326.001712,1069 Z M330.670494,1078.73855 C330.673965,1078.85838 330.677437,1078.97821 330.677437,1079.09805 C330.677437,1082.76706 327.994126,1087 323.089186,1087 C321.582644,1087 320.18024,1086.53829 319,1085.75232 C319.208278,1085.77699 319.420027,1085.79109 319.635247,1085.79109 C320.884913,1085.79109 322.037383,1085.347 322.950334,1084.60333 C321.780507,1084.57866 320.798131,1083.7786 320.457944,1082.67542 C320.621095,1082.70715 320.787717,1082.72477 320.95781,1082.72477 C321.204272,1082.72477 321.468091,1082.68952 321.690254,1082.62608 C320.468358,1082.37232 319.576235,1081.248 319.576235,1079.90163 L319.576235,1079.86991 C319.923364,1080.07434 320.322563,1080.20122 320.759947,1080.21532 C320.041389,1079.71836 319.558879,1078.86543 319.558879,1077.90324 C319.558879,1077.39571 319.683845,1076.91637 319.912951,1076.50753 C321.228571,1078.18872 323.189853,1079.29189 325.408011,1079.4082 C325.359413,1079.20378 325.336849,1078.99231 325.336849,1078.77731 C325.336849,1077.24415 326.529933,1076 328.002109,1076 C328.769266,1076 329.46283,1076.33483 329.948812,1076.87408 C330.556288,1076.75072 331.125581,1076.52163 331.642804,1076.2009 C331.44494,1076.84941 331.021095,1077.39571 330.469159,1077.73758 C331.010681,1077.67062 331.524433,1077.52259 332,1077.30054 C331.645928,1077.85742 331.191188,1078.34732 330.670494,1078.73855 L330.670494,1078.73855 Z" id="path-1"></path>
        <filter x="-26.9%" y="-19.2%" width="153.8%" height="153.8%" filterUnits="objectBoundingBox" id="filter-2">
            <feOffset dx="0" dy="2" in="SourceAlpha" result="shadowOffsetOuter1"></feOffset>
            <feGaussianBlur stdDeviation="2" in="shadowOffsetOuter1" result="shadowBlurOuter1"></feGaussianBlur>
            <feColorMatrix values="0 0 0 0 0   0 0 0 0 0   0 0 0 0 0  0 0 0 0.123880026 0" type="matrix" in="shadowBlurOuter1"></feColorMatrix>
        </filter>
    </defs>
    <g id="Page-1" stroke="none" stroke-width="1" fill="none" fill-rule="evenodd">
        <g id="Mobile-News" transform="translate(-309.000000, -1166.000000)">
            <g id="Twitter" transform="translate(0.000000, 99.000000)">
                <use fill="black" fill-opacity="1" filter="url(#filter-2)" xlink:href="#path-1"></use>
                <use fill="#FFFFFF" fill-rule="evenodd" xlink:href="#path-1"></use>
            </g>
        </g>
    </g>
</svg>